<?xml version="1.0" encoding="UTF-8"?><svg xmlns="http://www.w3.org/2000/svg" width="312" height="148" viewBox="-0.5 -0.5 312 148" ><style><![CDATA[.B{pointer-events:all}.C{font-family:Helvetica}.D{font-size:12px}.E{text-anchor:middle}.F{fill:#b0b0b0}.G{pointer-events:stroke}]]></style><g stroke="#b0b0b0" stroke-miterlimit="10"><path d="M52 57V33h95l35.63-.42" fill="none" class="G"/><path d="M187.88 32.51l-6.96 3.59 1.71-3.52-1.79-3.48z" class="B F"/><path d="M52 80v20h94.5l36.13-.43" fill="none" class="G"/><path d="M187.88 99.51l-6.96 3.59 1.71-3.53-1.79-3.47z" class="B F"/></g><path fill="#fff2cc" d="M0 57h104v23H0z" class="B"/><text x="51.5" y="71.5" fill="#000" class="C D E">Pending</text><path fill="#d5e8d4" d="M189 21h101v23H189z" class="B"/><text x="239.5" y="35.5" fill="#000" class="C D E">Fulfilled: value</text><path fill="#f8cecc" d="M189 88h102v23H189z" class="B"/><text x="239.5" y="102.5" fill="#000" class="C D E">Rejected: error</text><rect x="160" width="151" height="146" rx="21.9" fill="none" stroke="#b0b0b0" stroke-dasharray="3 3" class="B"/><text x="239.5" y="139.5" class="C D E F">Resolved</text><text x="112.5" y="22.5" class="C D E F">resolve()</text><text x="107.5" y="115.5" class="C D E F">reject()</text></svg>